<?xml version="1.0" ?><!DOCTYPE svg  PUBLIC '-//W3C//DTD SVG 1.1//EN'  'http://www.w3.org/Graphics/SVG/1.1/DTD/svg11.dtd'><svg enable-background="new 0 0 800 800" height="800px" id="Layer_1" version="1.1" viewBox="0 0 800 800" width="800px" xml:space="preserve" xmlns="http://www.w3.org/2000/svg" xmlns:xlink="http://www.w3.org/1999/xlink"><g><path d="M39.943,597.52l49.615,50.82c2.733,2.794,6.343,4.194,9.962,4.194c3.502,0,7.012-1.315,9.722-3.957   c5.497-5.367,5.598-14.177,0.24-19.679l-40.36-41.337l58.063-51.128c5.762-5.077,6.32-13.869,1.242-19.641   c-5.078-5.764-13.875-6.311-19.637-1.245l-69.158,60.901c-5.77,5.077-6.329,13.872-1.25,19.641   C38.856,596.634,39.415,597.067,39.943,597.52z" fill="#4D4D4D"/><path d="M690.767,648.575c2.702,2.644,6.211,3.959,9.721,3.959c3.61,0,7.222-1.4,9.954-4.194l49.235-50.429   c0.831-0.641,1.607-1.391,2.307-2.239c4.845-5.965,3.943-14.726-2.02-19.575l-34.459-28.015   c-5.964-4.842-14.722-3.939-19.566,2.018c-4.854,5.965-3.945,14.726,2.019,19.575l22.517,18.313l-39.94,40.911   C685.161,634.396,685.269,643.205,690.767,648.575z" fill="#4D4D4D"/><path d="M621.817,499.635l51.681,42.021c2.578,2.097,5.684,3.117,8.773,3.117c4.038,0,8.044-1.754,10.801-5.135   c4.853-5.965,3.944-14.726-2.02-19.575l-51.68-42.021c-5.971-4.842-14.714-3.944-19.574,2.018   C614.954,486.024,615.854,494.785,621.817,499.635z" fill="#4D4D4D"/><path d="M51.022,163.391c3.564,0,7.121-1.358,9.839-4.072l48.155-48.144l48.141,48.141   c2.717,2.717,6.273,4.076,9.837,4.076s7.12-1.358,9.838-4.076c5.436-5.436,5.436-14.244,0-19.676l-56.867-56.856   c-2.998-3.004-7.035-4.286-10.965-3.967c-3.912-0.315-7.95,0.966-10.947,3.963l-56.867,56.856c-5.436,5.436-5.436,14.244,0,19.68   C43.903,162.033,47.459,163.391,51.022,163.391z" fill="#4D4D4D"/><path d="M166.994,239.875c3.563,0,7.12-1.358,9.838-4.076c5.436-5.431,5.436-14.244,0-19.675l-56.867-56.859   c-2.998-3.001-7.035-4.286-10.948-3.972c-3.929-0.314-7.959,0.97-10.964,3.972l-56.867,56.859c-5.436,5.431-5.436,14.24,0,19.675   c2.718,2.718,6.273,4.076,9.837,4.076c3.564,0,7.121-1.358,9.839-4.076l48.147-48.144l48.148,48.144   C159.874,238.517,163.431,239.875,166.994,239.875z" fill="#4D4D4D"/><path d="M92.882,238.602v72.055c0,7.683,6.234,13.914,13.914,13.914c7.687,0,13.914-6.23,13.914-13.914v-72.055   c0-7.683-6.228-13.914-13.914-13.914C99.116,224.688,92.882,230.919,92.882,238.602z" fill="#4D4D4D"/><path d="M245.021,163.391c3.563,0,7.127-1.358,9.845-4.076l48.141-48.137l48.147,48.141   c2.718,2.714,6.281,4.072,9.838,4.072c3.556,0,7.127-1.358,9.846-4.076c5.427-5.436,5.427-14.244-0.008-19.68L313.961,82.78   c-3.005-2.997-7.026-4.278-10.955-3.963c-3.93-0.319-7.951,0.963-10.964,3.967L235.19,139.64c-5.436,5.432-5.436,14.24,0,19.676   C237.907,162.033,241.464,163.391,245.021,163.391z" fill="#4D4D4D"/><path d="M245.021,239.875c3.563,0,7.127-1.358,9.845-4.076l48.141-48.144l48.147,48.144   c0.209,0.206,0.442,0.346,0.66,0.54L103.161,593.531c-4.394,6.308-2.841,14.981,3.464,19.369   c6.305,4.395,14.978,2.837,19.365-3.466l270.693-388.854l260.214,398.122c2.671,4.085,7.12,6.301,11.662,6.301   c2.609,0,5.249-0.733,7.594-2.267c6.437-4.203,8.246-12.826,4.037-19.261l-236.763-362.25l53.574-53.571l48.148,48.144   c2.717,2.718,6.273,4.076,9.829,4.076c3.564,0,7.128-1.358,9.846-4.076c5.435-5.431,5.435-14.244,0-19.675l-56.867-56.859   c-2.997-3.001-7.026-4.286-10.947-3.972c-3.93-0.314-7.959,0.97-10.965,3.972l-58.171,58.167l-19.18-29.342   c-2.53-3.87-6.815-6.23-11.444-6.301c-4.456,0.008-8.983,2.17-11.616,5.963l-17.718,25.457l-53.956-53.944   c-3.005-3.001-7.034-4.286-10.955-3.972c-3.93-0.314-7.951,0.97-10.964,3.972l-56.852,56.859c-5.436,5.431-5.436,14.244,0,19.675   C237.907,238.517,241.464,239.875,245.021,239.875z" fill="#4D4D4D"/><path d="M633.014,163.391c3.557,0,7.112-1.358,9.83-4.072L691,111.178l48.147,48.141   c2.717,2.714,6.282,4.072,9.837,4.072c3.556,0,7.129-1.358,9.846-4.076c5.427-5.436,5.427-14.244-0.008-19.68L701.954,82.78   c-3.004-2.997-7.026-4.278-10.954-3.963c-3.93-0.315-7.952,0.966-10.965,3.963l-56.867,56.856c-5.435,5.436-5.435,14.244,0,19.68   C625.886,162.033,629.449,163.391,633.014,163.391z" fill="#4D4D4D"/><path d="M739.147,235.799c2.717,2.718,6.282,4.076,9.837,4.076c3.556,0,7.129-1.358,9.838-4.076   c5.435-5.436,5.435-14.244,0-19.675l-56.868-56.859c-3.004-3.001-7.026-4.286-10.954-3.972c-3.93-0.314-7.952,0.97-10.965,3.972   l-56.867,56.859c-5.435,5.431-5.435,14.24,0,19.675c2.718,2.718,6.281,4.076,9.846,4.076c3.557,0,7.112-1.358,9.83-4.076   L691,187.656L739.147,235.799z" fill="#4D4D4D"/><path d="M693.205,324.571c7.687,0,13.913-6.23,13.913-13.914v-72.055c0-7.683-6.227-13.914-13.913-13.914   c-7.68,0-13.914,6.23-13.914,13.914v72.055C679.291,318.34,685.525,324.571,693.205,324.571z" fill="#4D4D4D"/><path d="M439.018,163.391c3.563,0,7.119-1.358,9.837-4.072l48.156-48.141l48.14,48.137   c2.717,2.717,6.273,4.076,9.829,4.076c3.564,0,7.128-1.358,9.846-4.076c5.435-5.436,5.435-14.244,0-19.676l-56.867-56.856   c-2.997-3.004-7.034-4.286-10.963-3.967c-3.914-0.315-7.952,0.966-10.949,3.963l-56.867,56.856c-5.435,5.436-5.435,14.244,0,19.68   C431.896,162.033,435.453,163.391,439.018,163.391z" fill="#4D4D4D"/><path d="M760.072,693.401H39.928c-7.68,0-13.914,6.233-13.914,13.915c0,7.683,6.234,13.915,13.914,13.915h720.145   c7.688,0,13.914-6.232,13.914-13.915C773.986,699.635,767.76,693.401,760.072,693.401z" fill="#4D4D4D"/><path d="M407.376,348.571c0-7.683-6.234-13.914-13.914-13.914c-0.17,0-0.326,0.043-0.497,0.051   c-0.17-0.008-0.325-0.051-0.497-0.051c-7.68,0-13.913,6.231-13.913,13.914c0,105.596-171.838,249.579-173.568,251.023   c-5.917,4.912-6.724,13.683-1.817,19.595c2.749,3.311,6.717,5.023,10.715,5.023c3.13,0,6.274-1.052,8.875-3.207   c6.235-5.179,129.008-108.114,170.206-210.854c41.199,102.739,163.972,205.675,170.207,210.854   c2.602,2.155,5.746,3.207,8.875,3.207c3.999,0,7.966-1.713,10.715-5.023c4.906-5.912,4.1-14.683-1.816-19.595   C579.213,598.15,407.376,454.167,407.376,348.571z" fill="#4D4D4D"/></g></svg>