<?xml version="1.0" standalone="no"?>
<!DOCTYPE svg PUBLIC "-//W3C//DTD SVG 20010904//EN"
 "http://www.w3.org/TR/2001/REC-SVG-20010904/DTD/svg10.dtd">
<svg version="1.0" xmlns="http://www.w3.org/2000/svg"
 width="384.000000pt" height="384.000000pt" viewBox="0 0 384.000000 384.000000"
 preserveAspectRatio="xMidYMid meet">
<metadata>
Created by potrace 1.11, written by Peter Selinger 2001-2013
</metadata>
<g transform="translate(0.000000,384.000000) scale(0.100000,-0.100000)"
fill="#000000" stroke="none">
<path d="M872 3409 c-194 -10 -218 -32 -147 -128 l34 -47 6 -260 c4 -142 2
-352 -2 -465 -9 -215 -8 -208 -57 -274 -6 -8 2 -36 24 -79 l32 -67 -7 -337
c-4 -223 -3 -346 3 -363 15 -37 207 -227 238 -235 33 -8 141 1 325 27 198 27
427 49 530 49 94 0 142 12 177 44 48 43 8 162 -67 201 -42 21 -334 37 -533 29
-145 -6 -174 -4 -213 10 -41 16 -46 22 -60 69 -27 91 -15 340 20 393 10 15 32
24 82 33 222 39 306 51 422 60 180 13 213 34 198 128 -9 52 -33 82 -84 105
-42 19 -64 20 -302 18 -311 -3 -288 -4 -301 21 -17 31 21 600 47 707 8 33 46
48 148 61 146 17 200 21 405 31 201 9 258 19 281 46 20 24 13 88 -13 128 -35
53 -84 76 -185 86 -119 12 -824 18 -1001 9z"/>
<path d="M2443 2643 c-67 -36 -102 -83 -169 -233 -100 -220 -140 -375 -165
-630 -15 -150 -15 -158 -2 -285 16 -150 63 -249 134 -285 47 -24 164 -51 252
-57 54 -4 77 -1 117 16 27 11 55 21 63 21 11 0 15 -45 20 -257 8 -322 17 -396
48 -430 33 -35 116 -71 181 -79 64 -8 118 11 144 51 16 24 16 33 5 84 -27 118
-31 176 -32 526 -2 474 42 1087 91 1280 16 61 18 86 10 105 -24 59 -162 108
-262 95 -47 -7 -58 -4 -158 45 -140 67 -200 74 -277 33z m295 -255 c33 -33
-12 -529 -69 -758 -23 -95 -96 -255 -129 -285 -16 -15 -25 -17 -38 -9 -89 55
-58 534 54 836 30 79 90 175 129 206 32 25 37 26 53 10z"/>
</g>
</svg>
