<?xml version="1.0" ?><svg viewBox="0 0 64 64" xmlns="http://www.w3.org/2000/svg"><title/><g data-name="Layer 37" id="Layer_37"><path d="M55.66,20.361a8.9,8.9,0,0,0-5.577-6.016L15.343.661,14.034.183A3,3,0,0,0,10,3V58.184a3,3,0,0,0-2,2.823v2a1,1,0,0,0,1,1H31a1,1,0,0,0,1-1v-2a3,3,0,0,0-1.986-2.818l24.005-29.8A8.858,8.858,0,0,0,55.66,20.361Zm-3.2,6.774L27.289,58.386a1,1,0,0,0,.779,1.623H29a1,1,0,0,1,1,1v1H10v-1a1,1,0,0,1,1-1,1,1,0,0,0,1-1V3a1,1,0,0,1,1.346-.938L49.361,16.206l.023.009a6.972,6.972,0,0,1,3.074,10.92Z"/><path d="M48.586,18.042l-4.507-1.791-.71-.283-.009,0L38,13.835l-.631-.252h-.007l-4.9-1.947L31.37,11.2l-.014,0L26.379,9.216l-1.009-.4-.013,0L20.368,6.827l-1-.4-.01,0L18.033,5.9a3.016,3.016,0,0,0-2.757.356A2.985,2.985,0,0,0,14,8.7V59.011a1,1,0,0,0,1,1h8a1,1,0,0,0,.78-.373l1.99-2.478.011-.008,1.893-2.362L32.8,48.41l1.981-2.464,0-.006,2.987-3.719.01-.008,1.673-2.086,5.768-7.18,1.558-1.938,0,0L50.9,25.879h0a4.953,4.953,0,0,0,.788-4.84A5.156,5.156,0,0,0,48.586,18.042ZM45,30.033l-1,1.245V18.369l1,.4Zm-3,3.735-1,1.244V17.174l1,.4ZM32.187,45.979,32,46.214V13.6l1,.4V44.97ZM26,11.215l1,.4V52.435l-1,1.247Zm3,1.191,1,.4V48.7l-1,1.244Zm6,2.384,1,.4V41.236L35,42.48Zm4,1.592V37.5l-1,1.247V15.983ZM16,8.7a.976.976,0,0,1,.423-.812.986.986,0,0,1,.9-.127l.679.27V58.013H16Zm4,49.31V8.829l1,.4V58.013Zm3-.6V10.021l1,.4V56.172ZM49.337,24.632,47,27.544V19.559l.874.347a3.222,3.222,0,0,1,1.937,1.821A2.935,2.935,0,0,1,49.337,24.632Z"/></g></svg>